<svg xmlns="http://www.w3.org/2000/svg" xmlns:xlink="http://www.w3.org/1999/xlink" width="500" zoomAndPan="magnify" viewBox="0 0 375 374.999991" height="500" preserveAspectRatio="xMidYMid meet" version="1.0"><defs><g/><clipPath id="dc6499b487"><path d="M 144 97.144531 L 236 97.144531 L 236 192 L 144 192 Z M 144 97.144531 " clip-rule="nonzero"/></clipPath><clipPath id="4ef0a9a990"><path d="M 138.570312 128 L 180 128 L 180 192.394531 L 138.570312 192.394531 Z M 138.570312 128 " clip-rule="nonzero"/></clipPath><clipPath id="11f3d5d269"><path d="M 150 172 L 164 172 L 164 192.394531 L 150 192.394531 Z M 150 172 " clip-rule="nonzero"/></clipPath><clipPath id="4879c8c6b0"><path d="M 141 113 L 236 113 L 236 192.394531 L 141 192.394531 Z M 141 113 " clip-rule="nonzero"/></clipPath></defs><rect x="-37.5" width="450" fill="#ffffff" y="-37.499999" height="449.999989" fill-opacity="1"/><rect x="-37.5" width="450" fill="#fff9f5" y="-37.499999" height="449.999989" fill-opacity="1"/><g clip-path="url(#dc6499b487)"><path fill="#f58634" d="M 203.785156 127.808594 C 205.871094 132.792969 204.003906 139.945312 197.558594 146.199219 C 191.804688 151.785156 184.128906 156.839844 180.949219 164.457031 C 176.503906 175.113281 181.53125 185.746094 192.210938 189.683594 C 205.355469 194.535156 225.242188 190.667969 233.714844 178.699219 C 238.824219 171.488281 233.847656 165.597656 224.816406 170.019531 C 217.316406 173.691406 211.199219 176.15625 207.007812 176.417969 C 200.070312 176.851562 197.488281 170.390625 205.597656 165 C 206.765625 164.226562 207.910156 163.425781 209.027344 162.601562 C 221.222656 153.585938 230.046875 141.757812 229.582031 129.109375 C 228.863281 109.648438 208.71875 95.144531 189.625 97.375 C 172.085938 99.421875 153.855469 113.003906 144.691406 135.238281 C 150.359375 126.03125 175.238281 117.847656 191.109375 120.113281 C 197.175781 120.980469 201.917969 123.371094 203.78125 127.8125 Z M 203.785156 127.808594 " fill-opacity="1" fill-rule="evenodd"/></g><g clip-path="url(#4ef0a9a990)"><path fill="#f58634" d="M 163.839844 172.40625 C 164.230469 152.941406 171.222656 137.171875 179.382812 128.214844 L 179.316406 128.289062 C 152.035156 131.914062 137.25 145.726562 138.839844 172.769531 C 140.335938 198.351562 163.296875 199.628906 163.839844 172.40625 Z M 163.839844 172.40625 " fill-opacity="1" fill-rule="evenodd"/></g><g clip-path="url(#11f3d5d269)"><path fill="#9fa3aa" d="M 151.851562 192.394531 C 151.433594 192.394531 151.019531 192.363281 150.601562 192.300781 C 151.019531 192.363281 151.433594 192.394531 151.851562 192.394531 C 157.574219 192.394531 163.144531 186.371094 163.789062 173.867188 C 163.148438 186.367188 157.578125 192.394531 151.851562 192.394531 Z M 150.59375 192.296875 C 150.589844 192.296875 150.589844 192.296875 150.582031 192.296875 C 150.582031 192.296875 150.589844 192.296875 150.59375 192.296875 Z M 150.574219 192.292969 C 150.570312 192.292969 150.570312 192.292969 150.566406 192.292969 C 150.570312 192.292969 150.570312 192.292969 150.574219 192.292969 Z M 150.550781 192.285156 C 150.550781 192.285156 150.550781 192.285156 150.546875 192.285156 C 150.546875 192.285156 150.546875 192.285156 150.550781 192.285156 Z M 163.84375 172.484375 C 163.84375 172.457031 163.84375 172.433594 163.84375 172.40625 C 163.84375 172.382812 163.84375 172.359375 163.84375 172.335938 C 163.84375 172.359375 163.84375 172.382812 163.84375 172.40625 C 163.84375 172.433594 163.84375 172.457031 163.84375 172.484375 Z M 163.847656 172.292969 C 163.847656 172.289062 163.847656 172.285156 163.847656 172.277344 C 163.847656 172.285156 163.847656 172.289062 163.847656 172.292969 Z M 163.847656 172.292969 " fill-opacity="1" fill-rule="nonzero"/></g><g clip-path="url(#4879c8c6b0)"><path fill="#c16439" d="M 151.851562 192.394531 C 151.433594 192.394531 151.019531 192.363281 150.601562 192.300781 C 150.597656 192.300781 150.59375 192.300781 150.59375 192.296875 C 150.589844 192.296875 150.589844 192.296875 150.582031 192.296875 C 150.578125 192.296875 150.574219 192.296875 150.570312 192.292969 C 150.566406 192.292969 150.566406 192.292969 150.5625 192.292969 C 150.554688 192.292969 150.550781 192.285156 150.542969 192.285156 C 150.542969 192.285156 150.542969 192.285156 150.539062 192.285156 C 147.324219 191.769531 144.175781 189.359375 141.941406 185.140625 C 143.570312 185.632812 145.046875 185.875 146.398438 185.875 C 156.019531 185.875 159.503906 173.636719 166.832031 152.015625 C 165.089844 158.132812 163.992188 164.941406 163.835938 172.277344 C 163.835938 172.285156 163.835938 172.289062 163.835938 172.292969 C 163.835938 172.304688 163.835938 172.320312 163.835938 172.332031 C 163.835938 172.355469 163.835938 172.378906 163.835938 172.398438 C 163.835938 172.425781 163.835938 172.453125 163.835938 172.480469 C 163.828125 172.953125 163.808594 173.410156 163.785156 173.863281 C 163.144531 186.363281 157.574219 192.390625 151.847656 192.390625 Z M 186.46875 186.535156 C 188.132812 187.820312 190.0625 188.890625 192.214844 189.683594 C 199.152344 192.246094 207.96875 192.375 215.992188 190.167969 C 215.921875 190.183594 215.847656 190.191406 215.78125 190.203125 C 223.457031 189.019531 241.480469 177.46875 234.234375 169.675781 C 225.769531 183.984375 200.265625 191.507812 186.464844 186.535156 Z M 215.78125 190.199219 C 215.660156 190.21875 215.539062 190.234375 215.417969 190.25 C 215.535156 190.234375 215.65625 190.21875 215.78125 190.199219 Z M 215.417969 190.25 C 215.300781 190.261719 215.183594 190.273438 215.074219 190.28125 C 215.183594 190.273438 215.300781 190.261719 215.417969 190.25 Z M 203.402344 137.824219 C 203.980469 136.378906 204.351562 134.957031 204.507812 133.59375 C 204.507812 133.59375 204.507812 133.585938 204.507812 133.585938 C 204.507812 133.582031 204.507812 133.578125 204.507812 133.574219 C 204.507812 133.570312 204.507812 133.570312 204.507812 133.566406 C 204.507812 133.5625 204.507812 133.5625 204.507812 133.554688 C 204.507812 133.550781 204.507812 133.546875 204.507812 133.546875 C 204.507812 133.542969 204.507812 133.542969 204.507812 133.539062 C 204.507812 133.535156 204.507812 133.53125 204.507812 133.523438 C 204.507812 133.523438 204.507812 133.519531 204.507812 133.519531 C 204.507812 133.515625 204.507812 133.511719 204.511719 133.503906 C 204.511719 133.503906 204.511719 133.503906 204.511719 133.496094 C 204.734375 131.429688 204.484375 129.492188 203.777344 127.800781 C 201.929688 123.382812 197.222656 120.992188 191.214844 120.117188 C 191.179688 120.113281 191.140625 120.109375 191.105469 120.105469 C 189.289062 119.84375 187.363281 119.722656 185.355469 119.722656 C 178.792969 119.722656 171.421875 121.03125 164.71875 123.160156 C 164.710938 123.164062 164.699219 123.164062 164.691406 123.167969 C 164.683594 123.171875 164.675781 123.171875 164.664062 123.179688 C 156.8125 125.671875 149.875 129.289062 146.230469 133.234375 C 156.710938 120.523438 175.445312 113.898438 189.621094 113.898438 C 204.941406 113.898438 214.933594 121.648438 203.394531 137.828125 Z M 200.640625 178.253906 C 191.980469 178.253906 195.367188 168.277344 204.972656 165.4375 C 201.324219 168.070312 200.144531 170.90625 200.703125 173.039062 C 200.703125 173.039062 200.703125 173.039062 200.703125 173.042969 C 200.703125 173.046875 200.703125 173.046875 200.707031 173.050781 C 200.707031 173.050781 200.707031 173.054688 200.707031 173.054688 C 200.707031 173.058594 200.710938 173.058594 200.710938 173.0625 C 200.710938 173.0625 200.710938 173.070312 200.710938 173.070312 C 200.710938 173.070312 200.710938 173.074219 200.710938 173.074219 C 200.710938 173.078125 200.710938 173.078125 200.710938 173.082031 C 200.710938 173.085938 200.710938 173.085938 200.710938 173.085938 C 200.710938 173.089844 200.71875 173.089844 200.71875 173.097656 C 200.71875 173.097656 200.71875 173.101562 200.71875 173.101562 C 200.71875 173.105469 200.71875 173.105469 200.71875 173.109375 C 200.71875 173.109375 200.71875 173.109375 200.71875 173.113281 C 200.71875 173.117188 200.722656 173.121094 200.722656 173.121094 C 200.972656 173.992188 201.515625 174.742188 202.304688 175.308594 C 202.304688 175.308594 202.304688 175.308594 202.308594 175.308594 C 202.3125 175.3125 202.3125 175.3125 202.316406 175.3125 C 202.316406 175.3125 202.324219 175.3125 202.324219 175.316406 C 202.324219 175.316406 202.328125 175.320312 202.328125 175.320312 C 202.332031 175.320312 202.332031 175.324219 202.332031 175.324219 C 202.332031 175.324219 202.332031 175.332031 202.335938 175.332031 C 202.339844 175.332031 202.339844 175.335938 202.34375 175.335938 C 202.34375 175.335938 202.34375 175.335938 202.347656 175.335938 C 202.355469 175.339844 202.359375 175.339844 202.359375 175.34375 C 203.347656 176.035156 204.71875 176.441406 206.359375 176.441406 C 206.574219 176.441406 206.792969 176.433594 207.019531 176.421875 C 207.867188 176.367188 208.792969 176.222656 209.796875 176 C 205.882812 177.605469 202.867188 178.261719 200.640625 178.261719 Z M 200.640625 178.253906 " fill-opacity="1" fill-rule="nonzero"/></g><path fill="#9fa3aa" d="M 206.359375 176.4375 C 204.71875 176.4375 203.347656 176.035156 202.359375 175.339844 C 203.351562 176.03125 204.714844 176.433594 206.359375 176.433594 C 206.574219 176.433594 206.792969 176.425781 207.019531 176.410156 C 207.867188 176.359375 208.796875 176.214844 209.804688 175.988281 C 208.796875 176.214844 207.871094 176.359375 207.023438 176.410156 C 206.796875 176.425781 206.578125 176.433594 206.363281 176.433594 Z M 202.359375 175.339844 C 202.355469 175.339844 202.355469 175.335938 202.347656 175.332031 C 202.355469 175.335938 202.359375 175.335938 202.359375 175.339844 Z M 202.34375 175.332031 C 202.34375 175.324219 202.339844 175.324219 202.335938 175.324219 C 202.339844 175.324219 202.339844 175.332031 202.34375 175.332031 Z M 202.332031 175.320312 C 202.328125 175.320312 202.328125 175.316406 202.328125 175.316406 C 202.332031 175.316406 202.332031 175.320312 202.332031 175.320312 Z M 202.316406 175.3125 C 202.316406 175.3125 202.3125 175.3125 202.3125 175.308594 C 202.3125 175.308594 202.316406 175.308594 202.316406 175.3125 Z M 202.304688 175.304688 C 202.304688 175.304688 202.300781 175.304688 202.300781 175.304688 C 202.300781 175.304688 202.300781 175.304688 202.304688 175.304688 Z M 200.722656 173.117188 Z M 200.71875 173.105469 C 200.71875 173.105469 200.71875 173.105469 200.71875 173.101562 C 200.71875 173.101562 200.71875 173.101562 200.71875 173.105469 Z M 200.710938 173.089844 C 200.710938 173.089844 200.710938 173.085938 200.710938 173.085938 C 200.710938 173.085938 200.710938 173.089844 200.710938 173.089844 Z M 200.707031 173.078125 C 200.707031 173.078125 200.707031 173.074219 200.707031 173.074219 C 200.707031 173.078125 200.707031 173.078125 200.707031 173.078125 Z M 200.703125 173.0625 C 200.703125 173.058594 200.703125 173.058594 200.703125 173.058594 C 200.703125 173.058594 200.703125 173.0625 200.703125 173.0625 Z M 200.699219 173.054688 C 200.699219 173.050781 200.699219 173.050781 200.695312 173.046875 C 200.695312 173.050781 200.699219 173.050781 200.699219 173.054688 Z M 200.695312 173.046875 C 200.695312 173.042969 200.691406 173.039062 200.691406 173.039062 C 200.691406 173.042969 200.691406 173.042969 200.695312 173.046875 Z M 200.691406 173.03125 C 200.125 170.902344 201.308594 168.066406 204.960938 165.433594 C 201.3125 168.066406 200.128906 170.902344 200.691406 173.03125 Z M 200.691406 173.03125 " fill-opacity="1" fill-rule="nonzero"/><path fill="#9fa3aa" d="M 204.507812 133.59375 C 204.507812 133.59375 204.507812 133.59375 204.507812 133.585938 C 204.507812 133.585938 204.507812 133.59375 204.507812 133.59375 Z M 204.507812 133.578125 C 204.507812 133.574219 204.507812 133.574219 204.507812 133.570312 C 204.507812 133.574219 204.507812 133.574219 204.507812 133.578125 Z M 204.511719 133.5625 C 204.511719 133.554688 204.511719 133.550781 204.511719 133.550781 C 204.511719 133.554688 204.511719 133.5625 204.511719 133.5625 Z M 204.515625 133.542969 C 204.515625 133.539062 204.515625 133.535156 204.515625 133.53125 C 204.515625 133.535156 204.515625 133.539062 204.515625 133.542969 Z M 204.515625 133.523438 C 204.515625 133.519531 204.515625 133.511719 204.519531 133.507812 C 204.519531 133.511719 204.519531 133.515625 204.515625 133.523438 Z M 204.519531 133.507812 C 204.746094 131.4375 204.492188 129.5 203.785156 127.808594 C 204.488281 129.5 204.746094 131.4375 204.519531 133.507812 Z M 164.679688 123.183594 C 164.6875 123.179688 164.695312 123.179688 164.707031 123.171875 C 164.695312 123.179688 164.6875 123.179688 164.679688 123.183594 Z M 164.734375 123.164062 C 171.4375 121.039062 178.808594 119.726562 185.371094 119.726562 C 187.378906 119.726562 189.308594 119.847656 191.121094 120.109375 C 191.15625 120.113281 191.191406 120.117188 191.226562 120.121094 C 191.191406 120.117188 191.15625 120.113281 191.121094 120.109375 C 189.308594 119.847656 187.375 119.726562 185.371094 119.726562 C 178.804688 119.726562 171.4375 121.039062 164.734375 123.164062 Z M 164.734375 123.164062 " fill-opacity="1" fill-rule="nonzero"/><g fill="#292828" fill-opacity="1"><g transform="translate(134.69106, 230.421362)"><g><path d="M 11.40625 -19.9375 L 11.40625 -14.859375 L 8.859375 -14.859375 L 8.859375 0 L 2.75 0 L 2.75 -14.859375 L 0.890625 -14.859375 L 0.890625 -19.9375 L 2.75 -19.9375 L 2.75 -20.6875 C 2.75 -23.21875 3.421875 -25.066406 4.765625 -26.234375 C 6.117188 -27.398438 8.234375 -27.984375 11.109375 -27.984375 L 11.109375 -22.796875 C 10.296875 -22.796875 9.71875 -22.640625 9.375 -22.328125 C 9.03125 -22.023438 8.859375 -21.476562 8.859375 -20.6875 L 8.859375 -19.9375 Z M 11.40625 -19.9375 "/></g></g></g><g fill="#292828" fill-opacity="1"><g transform="translate(145.804643, 230.421362)"><g><path d="M 8.25 -22.1875 C 7.5625 -21.5 6.71875 -21.15625 5.71875 -21.15625 C 4.71875 -21.15625 3.867188 -21.5 3.171875 -22.1875 C 2.484375 -22.882812 2.140625 -23.738281 2.140625 -24.75 C 2.140625 -25.757812 2.484375 -26.609375 3.171875 -27.296875 C 3.867188 -27.992188 4.71875 -28.34375 5.71875 -28.34375 C 6.71875 -28.34375 7.5625 -27.992188 8.25 -27.296875 C 8.945312 -26.609375 9.296875 -25.757812 9.296875 -24.75 C 9.296875 -23.738281 8.945312 -22.882812 8.25 -22.1875 Z M 2.6875 0 L 2.6875 -19.9375 L 8.796875 -19.9375 L 8.796875 0 Z M 2.6875 0 "/></g></g></g><g fill="#292828" fill-opacity="1"><g transform="translate(156.382196, 230.421362)"><g><path d="M 8.796875 0 L 2.6875 0 L 2.6875 -26.4375 L 8.796875 -26.4375 L 8.796875 -11.609375 L 14.96875 -19.9375 L 23.1875 -19.9375 L 14.65625 -9.75 L 23.1875 0 L 15.078125 0 L 8.796875 -7.96875 Z M 8.796875 0 "/></g></g></g><g fill="#292828" fill-opacity="1"><g transform="translate(178.823819, 230.421362)"><g><path d="M 8.796875 -19.9375 L 8.796875 -16.21875 C 10.222656 -18.84375 12.128906 -20.15625 14.515625 -20.15625 L 14.515625 -13.9375 L 13 -13.9375 C 11.601562 -13.9375 10.550781 -13.601562 9.84375 -12.9375 C 9.144531 -12.269531 8.796875 -11.101562 8.796875 -9.4375 L 8.796875 0 L 2.6875 0 L 2.6875 -19.9375 Z M 8.796875 -19.9375 "/></g></g></g><g fill="#292828" fill-opacity="1"><g transform="translate(193.082091, 230.421362)"><g><path d="M 14.828125 -6.3125 C 15.710938 -7.175781 16.15625 -8.394531 16.15625 -9.96875 C 16.15625 -11.539062 15.710938 -12.75 14.828125 -13.59375 C 13.941406 -14.4375 12.925781 -14.859375 11.78125 -14.859375 C 10.644531 -14.859375 9.632812 -14.429688 8.75 -13.578125 C 7.875 -12.722656 7.4375 -11.507812 7.4375 -9.9375 C 7.4375 -8.363281 7.875 -7.148438 8.75 -6.296875 C 9.632812 -5.453125 10.644531 -5.03125 11.78125 -5.03125 C 12.925781 -5.03125 13.941406 -5.457031 14.828125 -6.3125 Z M 3.859375 -2.609375 C 2.097656 -4.515625 1.21875 -6.957031 1.21875 -9.9375 C 1.21875 -12.914062 2.097656 -15.363281 3.859375 -17.28125 C 5.617188 -19.195312 7.765625 -20.15625 10.296875 -20.15625 C 12.835938 -20.15625 14.789062 -19.210938 16.15625 -17.328125 L 16.15625 -19.9375 L 22.265625 -19.9375 L 22.265625 0 L 16.15625 0 L 16.15625 -2.890625 C 14.675781 -0.796875 12.695312 0.25 10.21875 0.25 C 7.738281 0.25 5.617188 -0.703125 3.859375 -2.609375 Z M 3.859375 -2.609375 "/></g></g></g><g fill="#292828" fill-opacity="1"><g transform="translate(217.131798, 230.421362)"><g><path d="M 8.796875 -26.4375 L 8.796875 -17.015625 C 10.054688 -19.109375 12.066406 -20.15625 14.828125 -20.15625 C 17.117188 -20.15625 18.972656 -19.390625 20.390625 -17.859375 C 21.804688 -16.335938 22.515625 -14.269531 22.515625 -11.65625 L 22.515625 0 L 16.4375 0 L 16.4375 -10.828125 C 16.4375 -12.109375 16.097656 -13.097656 15.421875 -13.796875 C 14.742188 -14.503906 13.804688 -14.859375 12.609375 -14.859375 C 11.421875 -14.859375 10.488281 -14.503906 9.8125 -13.796875 C 9.132812 -13.097656 8.796875 -12.109375 8.796875 -10.828125 L 8.796875 0 L 2.6875 0 L 2.6875 -26.4375 Z M 8.796875 -26.4375 "/></g></g></g><g fill="#292828" fill-opacity="1"><g transform="translate(108.439699, 256.604009)"><g><path d="M 0.28125 -6.09375 L 0.28125 -7.484375 L 6.1875 -7.484375 L 6.1875 -6.09375 L 4.140625 -6.09375 L 4.140625 0 L 2.328125 0 L 2.328125 -6.09375 Z M 0.28125 -6.09375 "/></g></g></g><g fill="#292828" fill-opacity="1"><g transform="translate(118.317431, 256.604009)"><g><path d="M 5.515625 -7.484375 L 7.328125 -7.484375 L 7.328125 0 L 5.515625 0 L 5.515625 -3.09375 L 2.625 -3.09375 L 2.625 0 L 0.796875 0 L 0.796875 -7.484375 L 2.625 -7.484375 L 2.625 -4.484375 L 5.515625 -4.484375 Z M 5.515625 -7.484375 "/></g></g></g><g fill="#292828" fill-opacity="1"><g transform="translate(129.846052, 256.604009)"><g><path d="M 5.328125 -7.5 L 5.328125 -6.109375 L 2.625 -6.109375 L 2.625 -4.5 L 5.015625 -4.5 L 5.015625 -3.125 L 2.625 -3.125 L 2.625 -1.390625 L 5.328125 -1.390625 L 5.328125 0 L 0.796875 0 L 0.796875 -7.5 Z M 5.328125 -7.5 "/></g></g></g><g fill="#292828" fill-opacity="1"><g transform="translate(139.340347, 256.604009)"><g/></g></g><g fill="#292828" fill-opacity="1"><g transform="translate(145.937582, 256.604009)"><g><path d="M 0.796875 -7.484375 L 4.046875 -7.484375 C 4.804688 -7.484375 5.410156 -7.296875 5.859375 -6.921875 C 6.316406 -6.554688 6.546875 -6.085938 6.546875 -5.515625 C 6.546875 -4.671875 6.050781 -4.097656 5.0625 -3.796875 C 5.5625 -3.734375 5.960938 -3.523438 6.265625 -3.171875 C 6.566406 -2.828125 6.71875 -2.421875 6.71875 -1.953125 C 6.71875 -1.359375 6.5 -0.882812 6.0625 -0.53125 C 5.625 -0.175781 5.015625 0 4.234375 0 L 0.796875 0 Z M 2.625 -6.09375 L 2.625 -4.46875 L 3.8125 -4.46875 C 4.070312 -4.46875 4.28125 -4.535156 4.4375 -4.671875 C 4.601562 -4.804688 4.6875 -5.007812 4.6875 -5.28125 C 4.6875 -5.550781 4.601562 -5.753906 4.4375 -5.890625 C 4.28125 -6.023438 4.070312 -6.09375 3.8125 -6.09375 Z M 2.625 -1.390625 L 4 -1.390625 C 4.25 -1.390625 4.453125 -1.460938 4.609375 -1.609375 C 4.773438 -1.753906 4.859375 -1.957031 4.859375 -2.21875 C 4.859375 -2.488281 4.78125 -2.703125 4.625 -2.859375 C 4.46875 -3.015625 4.265625 -3.09375 4.015625 -3.09375 L 2.625 -3.09375 Z M 2.625 -1.390625 "/></g></g></g><g fill="#292828" fill-opacity="1"><g transform="translate(156.518267, 256.604009)"><g><path d="M 5.328125 -7.5 L 5.328125 -6.109375 L 2.625 -6.109375 L 2.625 -4.5 L 5.015625 -4.5 L 5.015625 -3.125 L 2.625 -3.125 L 2.625 -1.390625 L 5.328125 -1.390625 L 5.328125 0 L 0.796875 0 L 0.796875 -7.5 Z M 5.328125 -7.5 "/></g></g></g><g fill="#292828" fill-opacity="1"><g transform="translate(166.012562, 256.604009)"><g><path d="M 3.328125 -6.15625 C 3.109375 -6.15625 2.925781 -6.09375 2.78125 -5.96875 C 2.632812 -5.84375 2.5625 -5.664062 2.5625 -5.4375 C 2.5625 -5.21875 2.628906 -5.035156 2.765625 -4.890625 C 2.898438 -4.753906 3.070312 -4.648438 3.28125 -4.578125 C 3.5 -4.503906 3.738281 -4.429688 4 -4.359375 C 4.269531 -4.296875 4.535156 -4.210938 4.796875 -4.109375 C 5.066406 -4.015625 5.304688 -3.894531 5.515625 -3.75 C 5.734375 -3.613281 5.910156 -3.414062 6.046875 -3.15625 C 6.179688 -2.894531 6.25 -2.585938 6.25 -2.234375 C 6.25 -1.597656 5.988281 -1.050781 5.46875 -0.59375 C 4.957031 -0.144531 4.28125 0.078125 3.4375 0.078125 C 2.601562 0.078125 1.925781 -0.125 1.40625 -0.53125 C 0.894531 -0.9375 0.640625 -1.515625 0.640625 -2.265625 L 2.578125 -2.265625 C 2.628906 -1.660156 2.9375 -1.359375 3.5 -1.359375 C 3.757812 -1.359375 3.960938 -1.425781 4.109375 -1.5625 C 4.265625 -1.707031 4.34375 -1.882812 4.34375 -2.09375 C 4.34375 -2.3125 4.273438 -2.488281 4.140625 -2.625 C 4.003906 -2.757812 3.828125 -2.863281 3.609375 -2.9375 C 3.390625 -3.019531 3.144531 -3.09375 2.875 -3.15625 C 2.613281 -3.226562 2.347656 -3.3125 2.078125 -3.40625 C 1.816406 -3.507812 1.578125 -3.628906 1.359375 -3.765625 C 1.148438 -3.898438 0.976562 -4.097656 0.84375 -4.359375 C 0.707031 -4.617188 0.640625 -4.925781 0.640625 -5.28125 C 0.640625 -5.976562 0.894531 -6.535156 1.40625 -6.953125 C 1.925781 -7.378906 2.585938 -7.59375 3.390625 -7.59375 C 4.203125 -7.59375 4.859375 -7.40625 5.359375 -7.03125 C 5.859375 -6.664062 6.117188 -6.09375 6.140625 -5.3125 L 4.15625 -5.3125 C 4.125 -5.582031 4.035156 -5.789062 3.890625 -5.9375 C 3.742188 -6.082031 3.554688 -6.15625 3.328125 -6.15625 Z M 3.328125 -6.15625 "/></g></g></g><g fill="#292828" fill-opacity="1"><g transform="translate(176.305677, 256.604009)"><g><path d="M 0.28125 -6.09375 L 0.28125 -7.484375 L 6.1875 -7.484375 L 6.1875 -6.09375 L 4.140625 -6.09375 L 4.140625 0 L 2.328125 0 L 2.328125 -6.09375 Z M 0.28125 -6.09375 "/></g></g></g><g fill="#292828" fill-opacity="1"><g transform="translate(186.183408, 256.604009)"><g/></g></g><g fill="#292828" fill-opacity="1"><g transform="translate(192.780642, 256.604009)"><g><path d="M 6.5 -5.1875 C 6.5 -4.6875 6.316406 -4.203125 5.953125 -3.734375 C 5.765625 -3.492188 5.476562 -3.296875 5.09375 -3.140625 C 4.71875 -2.984375 4.269531 -2.90625 3.75 -2.90625 L 2.625 -2.90625 L 2.625 0 L 0.796875 0 L 0.796875 -7.484375 L 3.75 -7.484375 C 4.613281 -7.484375 5.285156 -7.257812 5.765625 -6.8125 C 6.253906 -6.363281 6.5 -5.820312 6.5 -5.1875 Z M 2.625 -4.296875 L 3.75 -4.296875 C 4.03125 -4.296875 4.25 -4.375 4.40625 -4.53125 C 4.5625 -4.695312 4.640625 -4.910156 4.640625 -5.171875 C 4.640625 -5.441406 4.554688 -5.660156 4.390625 -5.828125 C 4.234375 -6.003906 4.019531 -6.09375 3.75 -6.09375 L 2.625 -6.09375 Z M 2.625 -4.296875 "/></g></g></g><g fill="#292828" fill-opacity="1"><g transform="translate(202.977892, 256.604009)"><g><path d="M 0.796875 -7.484375 L 2.625 -7.484375 L 2.625 -1.390625 L 4.890625 -1.390625 L 4.890625 0 L 0.796875 0 Z M 0.796875 -7.484375 "/></g></g></g><g fill="#292828" fill-opacity="1"><g transform="translate(211.481645, 256.604009)"><g><path d="M 5.546875 0 L 5.140625 -1.25 L 2.453125 -1.25 L 2.03125 0 L 0.09375 0 L 2.703125 -7.5 L 4.90625 -7.5 L 7.5 0 Z M 2.90625 -2.640625 L 4.671875 -2.640625 L 3.796875 -5.3125 Z M 2.90625 -2.640625 "/></g></g></g><g fill="#292828" fill-opacity="1"><g transform="translate(222.477708, 256.604009)"><g><path d="M 1.46875 -1.015625 C 0.726562 -1.734375 0.359375 -2.644531 0.359375 -3.75 C 0.359375 -4.863281 0.726562 -5.78125 1.46875 -6.5 C 2.21875 -7.226562 3.128906 -7.59375 4.203125 -7.59375 C 5.035156 -7.59375 5.773438 -7.367188 6.421875 -6.921875 C 7.066406 -6.484375 7.515625 -5.875 7.765625 -5.09375 L 5.59375 -5.09375 C 5.3125 -5.644531 4.859375 -5.921875 4.234375 -5.921875 C 3.609375 -5.921875 3.113281 -5.722656 2.75 -5.328125 C 2.394531 -4.929688 2.21875 -4.40625 2.21875 -3.75 C 2.21875 -3.101562 2.394531 -2.582031 2.75 -2.1875 C 3.113281 -1.800781 3.609375 -1.609375 4.234375 -1.609375 C 4.859375 -1.609375 5.3125 -1.878906 5.59375 -2.421875 L 7.765625 -2.421875 C 7.515625 -1.640625 7.066406 -1.03125 6.421875 -0.59375 C 5.773438 -0.15625 5.035156 0.0625 4.203125 0.0625 C 3.128906 0.0625 2.21875 -0.296875 1.46875 -1.015625 Z M 1.46875 -1.015625 "/></g></g></g><g fill="#292828" fill-opacity="1"><g transform="translate(234.016977, 256.604009)"><g><path d="M 5.328125 -7.5 L 5.328125 -6.109375 L 2.625 -6.109375 L 2.625 -4.5 L 5.015625 -4.5 L 5.015625 -3.125 L 2.625 -3.125 L 2.625 -1.390625 L 5.328125 -1.390625 L 5.328125 0 L 0.796875 0 L 0.796875 -7.5 Z M 5.328125 -7.5 "/></g></g></g><g fill="#292828" fill-opacity="1"><g transform="translate(243.511278, 256.604009)"><g/></g></g><g fill="#292828" fill-opacity="1"><g transform="translate(250.108517, 256.604009)"><g><path d="M 0.28125 -6.09375 L 0.28125 -7.484375 L 6.1875 -7.484375 L 6.1875 -6.09375 L 4.140625 -6.09375 L 4.140625 0 L 2.328125 0 L 2.328125 -6.09375 Z M 0.28125 -6.09375 "/></g></g></g><g fill="#292828" fill-opacity="1"><g transform="translate(259.986254, 256.604009)"><g><path d="M 5.625 -2.1875 C 5.988281 -2.582031 6.171875 -3.101562 6.171875 -3.75 C 6.171875 -4.40625 5.988281 -4.929688 5.625 -5.328125 C 5.269531 -5.722656 4.789062 -5.921875 4.1875 -5.921875 C 3.59375 -5.921875 3.113281 -5.722656 2.75 -5.328125 C 2.394531 -4.929688 2.21875 -4.40625 2.21875 -3.75 C 2.21875 -3.101562 2.394531 -2.582031 2.75 -2.1875 C 3.113281 -1.800781 3.59375 -1.609375 4.1875 -1.609375 C 4.789062 -1.609375 5.269531 -1.800781 5.625 -2.1875 Z M 1.46875 -1 C 0.726562 -1.726562 0.359375 -2.644531 0.359375 -3.75 C 0.359375 -4.863281 0.726562 -5.78125 1.46875 -6.5 C 2.21875 -7.226562 3.128906 -7.59375 4.203125 -7.59375 C 5.273438 -7.59375 6.179688 -7.226562 6.921875 -6.5 C 7.660156 -5.78125 8.03125 -4.863281 8.03125 -3.75 C 8.03125 -2.644531 7.660156 -1.726562 6.921875 -1 C 6.179688 -0.28125 5.273438 0.078125 4.203125 0.078125 C 3.128906 0.078125 2.21875 -0.28125 1.46875 -1 Z M 1.46875 -1 "/></g></g></g><g fill="#292828" fill-opacity="1"><g transform="translate(85.278783, 270.939586)"><g><path d="M 2.625 -1.390625 L 3.4375 -1.390625 C 4.125 -1.390625 4.664062 -1.601562 5.0625 -2.03125 C 5.46875 -2.457031 5.671875 -3.023438 5.671875 -3.734375 C 5.671875 -4.453125 5.46875 -5.023438 5.0625 -5.453125 C 4.664062 -5.878906 4.125 -6.09375 3.4375 -6.09375 L 2.625 -6.09375 Z M 3.4375 -7.484375 C 4.625 -7.484375 5.597656 -7.132812 6.359375 -6.4375 C 7.128906 -5.75 7.515625 -4.851562 7.515625 -3.75 C 7.515625 -2.644531 7.128906 -1.742188 6.359375 -1.046875 C 5.597656 -0.347656 4.625 0 3.4375 0 L 0.796875 0 L 0.796875 -7.484375 Z M 3.4375 -7.484375 "/></g></g></g><g fill="#292828" fill-opacity="1"><g transform="translate(96.551781, 270.939586)"><g><path d="M 0.796875 0 L 0.796875 -7.484375 L 2.625 -7.484375 L 2.625 0 Z M 0.796875 0 "/></g></g></g><g fill="#292828" fill-opacity="1"><g transform="translate(103.372691, 270.939586)"><g><path d="M 3.328125 -6.15625 C 3.109375 -6.15625 2.925781 -6.09375 2.78125 -5.96875 C 2.632812 -5.84375 2.5625 -5.664062 2.5625 -5.4375 C 2.5625 -5.21875 2.628906 -5.035156 2.765625 -4.890625 C 2.898438 -4.753906 3.070312 -4.648438 3.28125 -4.578125 C 3.5 -4.503906 3.738281 -4.429688 4 -4.359375 C 4.269531 -4.296875 4.535156 -4.210938 4.796875 -4.109375 C 5.066406 -4.015625 5.304688 -3.894531 5.515625 -3.75 C 5.734375 -3.613281 5.910156 -3.414062 6.046875 -3.15625 C 6.179688 -2.894531 6.25 -2.585938 6.25 -2.234375 C 6.25 -1.597656 5.988281 -1.050781 5.46875 -0.59375 C 4.957031 -0.144531 4.28125 0.078125 3.4375 0.078125 C 2.601562 0.078125 1.925781 -0.125 1.40625 -0.53125 C 0.894531 -0.9375 0.640625 -1.515625 0.640625 -2.265625 L 2.578125 -2.265625 C 2.628906 -1.660156 2.9375 -1.359375 3.5 -1.359375 C 3.757812 -1.359375 3.960938 -1.425781 4.109375 -1.5625 C 4.265625 -1.707031 4.34375 -1.882812 4.34375 -2.09375 C 4.34375 -2.3125 4.273438 -2.488281 4.140625 -2.625 C 4.003906 -2.757812 3.828125 -2.863281 3.609375 -2.9375 C 3.390625 -3.019531 3.144531 -3.09375 2.875 -3.15625 C 2.613281 -3.226562 2.347656 -3.3125 2.078125 -3.40625 C 1.816406 -3.507812 1.578125 -3.628906 1.359375 -3.765625 C 1.148438 -3.898438 0.976562 -4.097656 0.84375 -4.359375 C 0.707031 -4.617188 0.640625 -4.925781 0.640625 -5.28125 C 0.640625 -5.976562 0.894531 -6.535156 1.40625 -6.953125 C 1.925781 -7.378906 2.585938 -7.59375 3.390625 -7.59375 C 4.203125 -7.59375 4.859375 -7.40625 5.359375 -7.03125 C 5.859375 -6.664062 6.117188 -6.09375 6.140625 -5.3125 L 4.15625 -5.3125 C 4.125 -5.582031 4.035156 -5.789062 3.890625 -5.9375 C 3.742188 -6.082031 3.554688 -6.15625 3.328125 -6.15625 Z M 3.328125 -6.15625 "/></g></g></g><g fill="#292828" fill-opacity="1"><g transform="translate(113.665805, 270.939586)"><g><path d="M 6.5 -5.1875 C 6.5 -4.6875 6.316406 -4.203125 5.953125 -3.734375 C 5.765625 -3.492188 5.476562 -3.296875 5.09375 -3.140625 C 4.71875 -2.984375 4.269531 -2.90625 3.75 -2.90625 L 2.625 -2.90625 L 2.625 0 L 0.796875 0 L 0.796875 -7.484375 L 3.75 -7.484375 C 4.613281 -7.484375 5.285156 -7.257812 5.765625 -6.8125 C 6.253906 -6.363281 6.5 -5.820312 6.5 -5.1875 Z M 2.625 -4.296875 L 3.75 -4.296875 C 4.03125 -4.296875 4.25 -4.375 4.40625 -4.53125 C 4.5625 -4.695312 4.640625 -4.910156 4.640625 -5.171875 C 4.640625 -5.441406 4.554688 -5.660156 4.390625 -5.828125 C 4.234375 -6.003906 4.019531 -6.09375 3.75 -6.09375 L 2.625 -6.09375 Z M 2.625 -4.296875 "/></g></g></g><g fill="#292828" fill-opacity="1"><g transform="translate(123.863055, 270.939586)"><g><path d="M 0.796875 -7.484375 L 2.625 -7.484375 L 2.625 -1.390625 L 4.890625 -1.390625 L 4.890625 0 L 0.796875 0 Z M 0.796875 -7.484375 "/></g></g></g><g fill="#292828" fill-opacity="1"><g transform="translate(132.366814, 270.939586)"><g><path d="M 5.546875 0 L 5.140625 -1.25 L 2.453125 -1.25 L 2.03125 0 L 0.09375 0 L 2.703125 -7.5 L 4.90625 -7.5 L 7.5 0 Z M 2.90625 -2.640625 L 4.671875 -2.640625 L 3.796875 -5.3125 Z M 2.90625 -2.640625 "/></g></g></g><g fill="#292828" fill-opacity="1"><g transform="translate(143.362883, 270.939586)"><g><path d="M 4.578125 0 L 2.75 0 L 2.75 -2.40625 L 0.15625 -7.484375 L 2.234375 -7.484375 L 3.671875 -4.109375 L 5.09375 -7.484375 L 7.15625 -7.484375 L 4.578125 -2.40625 Z M 4.578125 0 "/></g></g></g><g fill="#292828" fill-opacity="1"><g transform="translate(154.082033, 270.939586)"><g/></g></g><g fill="#292828" fill-opacity="1"><g transform="translate(160.679267, 270.939586)"><g><path d="M 4.578125 0 L 2.75 0 L 2.75 -2.40625 L 0.15625 -7.484375 L 2.234375 -7.484375 L 3.671875 -4.109375 L 5.09375 -7.484375 L 7.15625 -7.484375 L 4.578125 -2.40625 Z M 4.578125 0 "/></g></g></g><g fill="#292828" fill-opacity="1"><g transform="translate(171.398417, 270.939586)"><g><path d="M 5.625 -2.1875 C 5.988281 -2.582031 6.171875 -3.101562 6.171875 -3.75 C 6.171875 -4.40625 5.988281 -4.929688 5.625 -5.328125 C 5.269531 -5.722656 4.789062 -5.921875 4.1875 -5.921875 C 3.59375 -5.921875 3.113281 -5.722656 2.75 -5.328125 C 2.394531 -4.929688 2.21875 -4.40625 2.21875 -3.75 C 2.21875 -3.101562 2.394531 -2.582031 2.75 -2.1875 C 3.113281 -1.800781 3.59375 -1.609375 4.1875 -1.609375 C 4.789062 -1.609375 5.269531 -1.800781 5.625 -2.1875 Z M 1.46875 -1 C 0.726562 -1.726562 0.359375 -2.644531 0.359375 -3.75 C 0.359375 -4.863281 0.726562 -5.78125 1.46875 -6.5 C 2.21875 -7.226562 3.128906 -7.59375 4.203125 -7.59375 C 5.273438 -7.59375 6.179688 -7.226562 6.921875 -6.5 C 7.660156 -5.78125 8.03125 -4.863281 8.03125 -3.75 C 8.03125 -2.644531 7.660156 -1.726562 6.921875 -1 C 6.179688 -0.28125 5.273438 0.078125 4.203125 0.078125 C 3.128906 0.078125 2.21875 -0.28125 1.46875 -1 Z M 1.46875 -1 "/></g></g></g><g fill="#292828" fill-opacity="1"><g transform="translate(183.193315, 270.939586)"><g><path d="M 0.765625 -3.015625 L 0.765625 -7.484375 L 2.59375 -7.484375 L 2.59375 -3.015625 C 2.59375 -2.566406 2.703125 -2.222656 2.921875 -1.984375 C 3.140625 -1.742188 3.460938 -1.625 3.890625 -1.625 C 4.316406 -1.625 4.644531 -1.742188 4.875 -1.984375 C 5.101562 -2.222656 5.21875 -2.566406 5.21875 -3.015625 L 5.21875 -7.484375 L 7.03125 -7.484375 L 7.03125 -3.015625 C 7.03125 -2.359375 6.875 -1.789062 6.5625 -1.3125 C 6.257812 -0.832031 5.867188 -0.476562 5.390625 -0.25 C 4.921875 -0.03125 4.410156 0.078125 3.859375 0.078125 C 2.992188 0.078125 2.257812 -0.191406 1.65625 -0.734375 C 1.0625 -1.273438 0.765625 -2.035156 0.765625 -3.015625 Z M 0.765625 -3.015625 "/></g></g></g><g fill="#292828" fill-opacity="1"><g transform="translate(194.381106, 270.939586)"><g><path d="M 2.625 -2.90625 L 2.625 0 L 0.796875 0 L 0.796875 -7.484375 L 3.75 -7.484375 C 4.613281 -7.484375 5.285156 -7.257812 5.765625 -6.8125 C 6.253906 -6.363281 6.5 -5.820312 6.5 -5.1875 C 6.5 -4.757812 6.367188 -4.335938 6.109375 -3.921875 C 5.847656 -3.503906 5.414062 -3.210938 4.8125 -3.046875 L 6.65625 0 L 4.515625 0 L 2.828125 -2.90625 Z M 2.625 -6.09375 L 2.625 -4.296875 L 3.75 -4.296875 C 4.03125 -4.296875 4.25 -4.375 4.40625 -4.53125 C 4.5625 -4.695312 4.640625 -4.910156 4.640625 -5.171875 C 4.640625 -5.441406 4.554688 -5.660156 4.390625 -5.828125 C 4.234375 -6.003906 4.019531 -6.09375 3.75 -6.09375 Z M 2.625 -6.09375 "/></g></g></g><g fill="#292828" fill-opacity="1"><g transform="translate(204.89788, 270.939586)"><g/></g></g><g fill="#292828" fill-opacity="1"><g transform="translate(211.49512, 270.939586)"><g><path d="M 6.5 -5.1875 C 6.5 -4.6875 6.316406 -4.203125 5.953125 -3.734375 C 5.765625 -3.492188 5.476562 -3.296875 5.09375 -3.140625 C 4.71875 -2.984375 4.269531 -2.90625 3.75 -2.90625 L 2.625 -2.90625 L 2.625 0 L 0.796875 0 L 0.796875 -7.484375 L 3.75 -7.484375 C 4.613281 -7.484375 5.285156 -7.257812 5.765625 -6.8125 C 6.253906 -6.363281 6.5 -5.820312 6.5 -5.1875 Z M 2.625 -4.296875 L 3.75 -4.296875 C 4.03125 -4.296875 4.25 -4.375 4.40625 -4.53125 C 4.5625 -4.695312 4.640625 -4.910156 4.640625 -5.171875 C 4.640625 -5.441406 4.554688 -5.660156 4.390625 -5.828125 C 4.234375 -6.003906 4.019531 -6.09375 3.75 -6.09375 L 2.625 -6.09375 Z M 2.625 -4.296875 "/></g></g></g><g fill="#292828" fill-opacity="1"><g transform="translate(221.692375, 270.939586)"><g><path d="M 2.625 -2.90625 L 2.625 0 L 0.796875 0 L 0.796875 -7.484375 L 3.75 -7.484375 C 4.613281 -7.484375 5.285156 -7.257812 5.765625 -6.8125 C 6.253906 -6.363281 6.5 -5.820312 6.5 -5.1875 C 6.5 -4.757812 6.367188 -4.335938 6.109375 -3.921875 C 5.847656 -3.503906 5.414062 -3.210938 4.8125 -3.046875 L 6.65625 0 L 4.515625 0 L 2.828125 -2.90625 Z M 2.625 -6.09375 L 2.625 -4.296875 L 3.75 -4.296875 C 4.03125 -4.296875 4.25 -4.375 4.40625 -4.53125 C 4.5625 -4.695312 4.640625 -4.910156 4.640625 -5.171875 C 4.640625 -5.441406 4.554688 -5.660156 4.390625 -5.828125 C 4.234375 -6.003906 4.019531 -6.09375 3.75 -6.09375 Z M 2.625 -6.09375 "/></g></g></g><g fill="#292828" fill-opacity="1"><g transform="translate(232.209149, 270.939586)"><g><path d="M 5.625 -2.1875 C 5.988281 -2.582031 6.171875 -3.101562 6.171875 -3.75 C 6.171875 -4.40625 5.988281 -4.929688 5.625 -5.328125 C 5.269531 -5.722656 4.789062 -5.921875 4.1875 -5.921875 C 3.59375 -5.921875 3.113281 -5.722656 2.75 -5.328125 C 2.394531 -4.929688 2.21875 -4.40625 2.21875 -3.75 C 2.21875 -3.101562 2.394531 -2.582031 2.75 -2.1875 C 3.113281 -1.800781 3.59375 -1.609375 4.1875 -1.609375 C 4.789062 -1.609375 5.269531 -1.800781 5.625 -2.1875 Z M 1.46875 -1 C 0.726562 -1.726562 0.359375 -2.644531 0.359375 -3.75 C 0.359375 -4.863281 0.726562 -5.78125 1.46875 -6.5 C 2.21875 -7.226562 3.128906 -7.59375 4.203125 -7.59375 C 5.273438 -7.59375 6.179688 -7.226562 6.921875 -6.5 C 7.660156 -5.78125 8.03125 -4.863281 8.03125 -3.75 C 8.03125 -2.644531 7.660156 -1.726562 6.921875 -1 C 6.179688 -0.28125 5.273438 0.078125 4.203125 0.078125 C 3.128906 0.078125 2.21875 -0.28125 1.46875 -1 Z M 1.46875 -1 "/></g></g></g><g fill="#292828" fill-opacity="1"><g transform="translate(244.004041, 270.939586)"><g><path d="M 3.4375 -2.390625 L 3.4375 -7.484375 L 5.265625 -7.484375 L 5.265625 -2.390625 C 5.265625 -1.609375 5.03125 -1 4.5625 -0.5625 C 4.101562 -0.132812 3.507812 0.078125 2.78125 0.078125 C 2.050781 0.078125 1.457031 -0.132812 1 -0.5625 C 0.539062 -1 0.3125 -1.609375 0.3125 -2.390625 L 2.125 -2.390625 C 2.125 -2.097656 2.1875 -1.882812 2.3125 -1.75 C 2.4375 -1.625 2.59375 -1.5625 2.78125 -1.5625 C 2.96875 -1.5625 3.125 -1.625 3.25 -1.75 C 3.375 -1.882812 3.4375 -2.097656 3.4375 -2.390625 Z M 3.4375 -2.390625 "/></g></g></g><g fill="#292828" fill-opacity="1"><g transform="translate(253.73266, 270.939586)"><g><path d="M 5.328125 -7.5 L 5.328125 -6.109375 L 2.625 -6.109375 L 2.625 -4.5 L 5.015625 -4.5 L 5.015625 -3.125 L 2.625 -3.125 L 2.625 -1.390625 L 5.328125 -1.390625 L 5.328125 0 L 0.796875 0 L 0.796875 -7.5 Z M 5.328125 -7.5 "/></g></g></g><g fill="#292828" fill-opacity="1"><g transform="translate(263.226961, 270.939586)"><g><path d="M 1.46875 -1.015625 C 0.726562 -1.734375 0.359375 -2.644531 0.359375 -3.75 C 0.359375 -4.863281 0.726562 -5.78125 1.46875 -6.5 C 2.21875 -7.226562 3.128906 -7.59375 4.203125 -7.59375 C 5.035156 -7.59375 5.773438 -7.367188 6.421875 -6.921875 C 7.066406 -6.484375 7.515625 -5.875 7.765625 -5.09375 L 5.59375 -5.09375 C 5.3125 -5.644531 4.859375 -5.921875 4.234375 -5.921875 C 3.609375 -5.921875 3.113281 -5.722656 2.75 -5.328125 C 2.394531 -4.929688 2.21875 -4.40625 2.21875 -3.75 C 2.21875 -3.101562 2.394531 -2.582031 2.75 -2.1875 C 3.113281 -1.800781 3.609375 -1.609375 4.234375 -1.609375 C 4.859375 -1.609375 5.3125 -1.878906 5.59375 -2.421875 L 7.765625 -2.421875 C 7.515625 -1.640625 7.066406 -1.03125 6.421875 -0.59375 C 5.773438 -0.15625 5.035156 0.0625 4.203125 0.0625 C 3.128906 0.0625 2.21875 -0.296875 1.46875 -1.015625 Z M 1.46875 -1.015625 "/></g></g></g><g fill="#292828" fill-opacity="1"><g transform="translate(274.76623, 270.939586)"><g><path d="M 0.28125 -6.09375 L 0.28125 -7.484375 L 6.1875 -7.484375 L 6.1875 -6.09375 L 4.140625 -6.09375 L 4.140625 0 L 2.328125 0 L 2.328125 -6.09375 Z M 0.28125 -6.09375 "/></g></g></g><g fill="#292828" fill-opacity="1"><g transform="translate(284.643967, 270.939586)"><g><path d="M 3.328125 -6.15625 C 3.109375 -6.15625 2.925781 -6.09375 2.78125 -5.96875 C 2.632812 -5.84375 2.5625 -5.664062 2.5625 -5.4375 C 2.5625 -5.21875 2.628906 -5.035156 2.765625 -4.890625 C 2.898438 -4.753906 3.070312 -4.648438 3.28125 -4.578125 C 3.5 -4.503906 3.738281 -4.429688 4 -4.359375 C 4.269531 -4.296875 4.535156 -4.210938 4.796875 -4.109375 C 5.066406 -4.015625 5.304688 -3.894531 5.515625 -3.75 C 5.734375 -3.613281 5.910156 -3.414062 6.046875 -3.15625 C 6.179688 -2.894531 6.25 -2.585938 6.25 -2.234375 C 6.25 -1.597656 5.988281 -1.050781 5.46875 -0.59375 C 4.957031 -0.144531 4.28125 0.078125 3.4375 0.078125 C 2.601562 0.078125 1.925781 -0.125 1.40625 -0.53125 C 0.894531 -0.9375 0.640625 -1.515625 0.640625 -2.265625 L 2.578125 -2.265625 C 2.628906 -1.660156 2.9375 -1.359375 3.5 -1.359375 C 3.757812 -1.359375 3.960938 -1.425781 4.109375 -1.5625 C 4.265625 -1.707031 4.34375 -1.882812 4.34375 -2.09375 C 4.34375 -2.3125 4.273438 -2.488281 4.140625 -2.625 C 4.003906 -2.757812 3.828125 -2.863281 3.609375 -2.9375 C 3.390625 -3.019531 3.144531 -3.09375 2.875 -3.15625 C 2.613281 -3.226562 2.347656 -3.3125 2.078125 -3.40625 C 1.816406 -3.507812 1.578125 -3.628906 1.359375 -3.765625 C 1.148438 -3.898438 0.976562 -4.097656 0.84375 -4.359375 C 0.707031 -4.617188 0.640625 -4.925781 0.640625 -5.28125 C 0.640625 -5.976562 0.894531 -6.535156 1.40625 -6.953125 C 1.925781 -7.378906 2.585938 -7.59375 3.390625 -7.59375 C 4.203125 -7.59375 4.859375 -7.40625 5.359375 -7.03125 C 5.859375 -6.664062 6.117188 -6.09375 6.140625 -5.3125 L 4.15625 -5.3125 C 4.125 -5.582031 4.035156 -5.789062 3.890625 -5.9375 C 3.742188 -6.082031 3.554688 -6.15625 3.328125 -6.15625 Z M 3.328125 -6.15625 "/></g></g></g></svg>