<svg xmlns="http://www.w3.org/2000/svg" xmlns:xlink="http://www.w3.org/1999/xlink" width="500" zoomAndPan="magnify" viewBox="0 0 375 374.999991" height="500" preserveAspectRatio="xMidYMid meet" version="1.0"><defs><clipPath id="9369c91924"><path d="M 144 97.144531 L 236 97.144531 L 236 192 L 144 192 Z M 144 97.144531 " clip-rule="nonzero"/></clipPath><clipPath id="e5ee7f1ff2"><path d="M 138.570312 128 L 180 128 L 180 192.394531 L 138.570312 192.394531 Z M 138.570312 128 " clip-rule="nonzero"/></clipPath><clipPath id="b3a6b777b7"><path d="M 150 172 L 164 172 L 164 192.394531 L 150 192.394531 Z M 150 172 " clip-rule="nonzero"/></clipPath><clipPath id="6dab53d6ef"><path d="M 141 113 L 236 113 L 236 192.394531 L 141 192.394531 Z M 141 113 " clip-rule="nonzero"/></clipPath></defs><g clip-path="url(#9369c91924)"><path fill="#f58634" d="M 203.785156 127.808594 C 205.871094 132.792969 204.003906 139.945312 197.558594 146.199219 C 191.804688 151.785156 184.128906 156.839844 180.949219 164.457031 C 176.503906 175.113281 181.53125 185.746094 192.210938 189.683594 C 205.355469 194.535156 225.242188 190.667969 233.714844 178.699219 C 238.824219 171.488281 233.847656 165.597656 224.816406 170.019531 C 217.316406 173.691406 211.199219 176.15625 207.007812 176.417969 C 200.070312 176.851562 197.488281 170.390625 205.597656 165 C 206.765625 164.226562 207.910156 163.425781 209.027344 162.601562 C 221.222656 153.585938 230.046875 141.757812 229.582031 129.109375 C 228.863281 109.648438 208.71875 95.144531 189.625 97.375 C 172.085938 99.421875 153.855469 113.003906 144.691406 135.238281 C 150.359375 126.03125 175.238281 117.847656 191.109375 120.113281 C 197.175781 120.980469 201.917969 123.371094 203.78125 127.8125 Z M 203.785156 127.808594 " fill-opacity="1" fill-rule="evenodd"/></g><g clip-path="url(#e5ee7f1ff2)"><path fill="#f58634" d="M 163.839844 172.40625 C 164.230469 152.941406 171.222656 137.171875 179.382812 128.214844 L 179.316406 128.289062 C 152.035156 131.914062 137.25 145.726562 138.839844 172.769531 C 140.335938 198.351562 163.296875 199.628906 163.839844 172.40625 Z M 163.839844 172.40625 " fill-opacity="1" fill-rule="evenodd"/></g><g clip-path="url(#b3a6b777b7)"><path fill="#9fa3aa" d="M 151.851562 192.394531 C 151.433594 192.394531 151.019531 192.363281 150.601562 192.300781 C 151.019531 192.363281 151.433594 192.394531 151.851562 192.394531 C 157.574219 192.394531 163.144531 186.371094 163.789062 173.867188 C 163.148438 186.367188 157.578125 192.394531 151.851562 192.394531 Z M 150.59375 192.296875 C 150.589844 192.296875 150.589844 192.296875 150.582031 192.296875 C 150.582031 192.296875 150.589844 192.296875 150.59375 192.296875 Z M 150.574219 192.292969 C 150.570312 192.292969 150.570312 192.292969 150.566406 192.292969 C 150.570312 192.292969 150.570312 192.292969 150.574219 192.292969 Z M 150.550781 192.285156 C 150.550781 192.285156 150.550781 192.285156 150.546875 192.285156 C 150.546875 192.285156 150.546875 192.285156 150.550781 192.285156 Z M 163.84375 172.484375 C 163.84375 172.457031 163.84375 172.433594 163.84375 172.40625 C 163.84375 172.382812 163.84375 172.359375 163.84375 172.335938 C 163.84375 172.359375 163.84375 172.382812 163.84375 172.40625 C 163.84375 172.433594 163.84375 172.457031 163.84375 172.484375 Z M 163.847656 172.292969 C 163.847656 172.289062 163.847656 172.285156 163.847656 172.277344 C 163.847656 172.285156 163.847656 172.289062 163.847656 172.292969 Z M 163.847656 172.292969 " fill-opacity="1" fill-rule="nonzero"/></g><g clip-path="url(#6dab53d6ef)"><path fill="#c16439" d="M 151.851562 192.394531 C 151.433594 192.394531 151.019531 192.363281 150.601562 192.300781 C 150.597656 192.300781 150.59375 192.300781 150.59375 192.296875 C 150.589844 192.296875 150.589844 192.296875 150.582031 192.296875 C 150.578125 192.296875 150.574219 192.296875 150.570312 192.292969 C 150.566406 192.292969 150.566406 192.292969 150.5625 192.292969 C 150.554688 192.292969 150.550781 192.285156 150.542969 192.285156 C 150.542969 192.285156 150.542969 192.285156 150.539062 192.285156 C 147.324219 191.769531 144.175781 189.359375 141.941406 185.140625 C 143.570312 185.632812 145.046875 185.875 146.398438 185.875 C 156.019531 185.875 159.503906 173.636719 166.832031 152.015625 C 165.089844 158.132812 163.992188 164.941406 163.835938 172.277344 C 163.835938 172.285156 163.835938 172.289062 163.835938 172.292969 C 163.835938 172.304688 163.835938 172.320312 163.835938 172.332031 C 163.835938 172.355469 163.835938 172.378906 163.835938 172.398438 C 163.835938 172.425781 163.835938 172.453125 163.835938 172.480469 C 163.828125 172.953125 163.808594 173.410156 163.785156 173.863281 C 163.144531 186.363281 157.574219 192.390625 151.847656 192.390625 Z M 186.46875 186.535156 C 188.132812 187.820312 190.0625 188.890625 192.214844 189.683594 C 199.152344 192.246094 207.96875 192.375 215.992188 190.167969 C 215.921875 190.183594 215.847656 190.191406 215.78125 190.203125 C 223.457031 189.019531 241.480469 177.46875 234.234375 169.675781 C 225.769531 183.984375 200.265625 191.507812 186.464844 186.535156 Z M 215.78125 190.199219 C 215.660156 190.21875 215.539062 190.234375 215.417969 190.25 C 215.535156 190.234375 215.65625 190.21875 215.78125 190.199219 Z M 215.417969 190.25 C 215.300781 190.261719 215.183594 190.273438 215.074219 190.28125 C 215.183594 190.273438 215.300781 190.261719 215.417969 190.25 Z M 203.402344 137.824219 C 203.980469 136.378906 204.351562 134.957031 204.507812 133.59375 C 204.507812 133.59375 204.507812 133.585938 204.507812 133.585938 C 204.507812 133.582031 204.507812 133.578125 204.507812 133.574219 C 204.507812 133.570312 204.507812 133.570312 204.507812 133.566406 C 204.507812 133.5625 204.507812 133.5625 204.507812 133.554688 C 204.507812 133.550781 204.507812 133.546875 204.507812 133.546875 C 204.507812 133.542969 204.507812 133.542969 204.507812 133.539062 C 204.507812 133.535156 204.507812 133.53125 204.507812 133.523438 C 204.507812 133.523438 204.507812 133.519531 204.507812 133.519531 C 204.507812 133.515625 204.507812 133.511719 204.511719 133.503906 C 204.511719 133.503906 204.511719 133.503906 204.511719 133.496094 C 204.734375 131.429688 204.484375 129.492188 203.777344 127.800781 C 201.929688 123.382812 197.222656 120.992188 191.214844 120.117188 C 191.179688 120.113281 191.140625 120.109375 191.105469 120.105469 C 189.289062 119.84375 187.363281 119.722656 185.355469 119.722656 C 178.792969 119.722656 171.421875 121.03125 164.71875 123.160156 C 164.710938 123.164062 164.699219 123.164062 164.691406 123.167969 C 164.683594 123.171875 164.675781 123.171875 164.664062 123.179688 C 156.8125 125.671875 149.875 129.289062 146.230469 133.234375 C 156.710938 120.523438 175.445312 113.898438 189.621094 113.898438 C 204.941406 113.898438 214.933594 121.648438 203.394531 137.828125 Z M 200.640625 178.253906 C 191.980469 178.253906 195.367188 168.277344 204.972656 165.4375 C 201.324219 168.070312 200.144531 170.90625 200.703125 173.039062 C 200.703125 173.039062 200.703125 173.039062 200.703125 173.042969 C 200.703125 173.046875 200.703125 173.046875 200.707031 173.050781 C 200.707031 173.050781 200.707031 173.054688 200.707031 173.054688 C 200.707031 173.058594 200.710938 173.058594 200.710938 173.0625 C 200.710938 173.0625 200.710938 173.070312 200.710938 173.070312 C 200.710938 173.070312 200.710938 173.074219 200.710938 173.074219 C 200.710938 173.078125 200.710938 173.078125 200.710938 173.082031 C 200.710938 173.085938 200.710938 173.085938 200.710938 173.085938 C 200.710938 173.089844 200.71875 173.089844 200.71875 173.097656 C 200.71875 173.097656 200.71875 173.101562 200.71875 173.101562 C 200.71875 173.105469 200.71875 173.105469 200.71875 173.109375 C 200.71875 173.109375 200.71875 173.109375 200.71875 173.113281 C 200.71875 173.117188 200.722656 173.121094 200.722656 173.121094 C 200.972656 173.992188 201.515625 174.742188 202.304688 175.308594 C 202.304688 175.308594 202.304688 175.308594 202.308594 175.308594 C 202.3125 175.3125 202.3125 175.3125 202.316406 175.3125 C 202.316406 175.3125 202.324219 175.3125 202.324219 175.316406 C 202.324219 175.316406 202.328125 175.320312 202.328125 175.320312 C 202.332031 175.320312 202.332031 175.324219 202.332031 175.324219 C 202.332031 175.324219 202.332031 175.332031 202.335938 175.332031 C 202.339844 175.332031 202.339844 175.335938 202.34375 175.335938 C 202.34375 175.335938 202.34375 175.335938 202.347656 175.335938 C 202.355469 175.339844 202.359375 175.339844 202.359375 175.34375 C 203.347656 176.035156 204.71875 176.441406 206.359375 176.441406 C 206.574219 176.441406 206.792969 176.433594 207.019531 176.421875 C 207.867188 176.367188 208.792969 176.222656 209.796875 176 C 205.882812 177.605469 202.867188 178.261719 200.640625 178.261719 Z M 200.640625 178.253906 " fill-opacity="1" fill-rule="nonzero"/></g><path fill="#9fa3aa" d="M 206.359375 176.4375 C 204.71875 176.4375 203.347656 176.035156 202.359375 175.339844 C 203.351562 176.03125 204.714844 176.433594 206.359375 176.433594 C 206.574219 176.433594 206.792969 176.425781 207.019531 176.410156 C 207.867188 176.359375 208.796875 176.214844 209.804688 175.988281 C 208.796875 176.214844 207.871094 176.359375 207.023438 176.410156 C 206.796875 176.425781 206.578125 176.433594 206.363281 176.433594 Z M 202.359375 175.339844 C 202.355469 175.339844 202.355469 175.335938 202.347656 175.332031 C 202.355469 175.335938 202.359375 175.335938 202.359375 175.339844 Z M 202.34375 175.332031 C 202.34375 175.324219 202.339844 175.324219 202.335938 175.324219 C 202.339844 175.324219 202.339844 175.332031 202.34375 175.332031 Z M 202.332031 175.320312 C 202.328125 175.320312 202.328125 175.316406 202.328125 175.316406 C 202.332031 175.316406 202.332031 175.320312 202.332031 175.320312 Z M 202.316406 175.3125 C 202.316406 175.3125 202.3125 175.3125 202.3125 175.308594 C 202.3125 175.308594 202.316406 175.308594 202.316406 175.3125 Z M 202.304688 175.304688 C 202.304688 175.304688 202.300781 175.304688 202.300781 175.304688 C 202.300781 175.304688 202.300781 175.304688 202.304688 175.304688 Z M 200.722656 173.117188 Z M 200.71875 173.105469 C 200.71875 173.105469 200.71875 173.105469 200.71875 173.101562 C 200.71875 173.101562 200.71875 173.101562 200.71875 173.105469 Z M 200.710938 173.089844 C 200.710938 173.089844 200.710938 173.085938 200.710938 173.085938 C 200.710938 173.085938 200.710938 173.089844 200.710938 173.089844 Z M 200.707031 173.078125 C 200.707031 173.078125 200.707031 173.074219 200.707031 173.074219 C 200.707031 173.078125 200.707031 173.078125 200.707031 173.078125 Z M 200.703125 173.0625 C 200.703125 173.058594 200.703125 173.058594 200.703125 173.058594 C 200.703125 173.058594 200.703125 173.0625 200.703125 173.0625 Z M 200.699219 173.054688 C 200.699219 173.050781 200.699219 173.050781 200.695312 173.046875 C 200.695312 173.050781 200.699219 173.050781 200.699219 173.054688 Z M 200.695312 173.046875 C 200.695312 173.042969 200.691406 173.039062 200.691406 173.039062 C 200.691406 173.042969 200.691406 173.042969 200.695312 173.046875 Z M 200.691406 173.03125 C 200.125 170.902344 201.308594 168.066406 204.960938 165.433594 C 201.3125 168.066406 200.128906 170.902344 200.691406 173.03125 Z M 200.691406 173.03125 " fill-opacity="1" fill-rule="nonzero"/><path fill="#9fa3aa" d="M 204.507812 133.59375 C 204.507812 133.59375 204.507812 133.59375 204.507812 133.585938 C 204.507812 133.585938 204.507812 133.59375 204.507812 133.59375 Z M 204.507812 133.578125 C 204.507812 133.574219 204.507812 133.574219 204.507812 133.570312 C 204.507812 133.574219 204.507812 133.574219 204.507812 133.578125 Z M 204.511719 133.5625 C 204.511719 133.554688 204.511719 133.550781 204.511719 133.550781 C 204.511719 133.554688 204.511719 133.5625 204.511719 133.5625 Z M 204.515625 133.542969 C 204.515625 133.539062 204.515625 133.535156 204.515625 133.53125 C 204.515625 133.535156 204.515625 133.539062 204.515625 133.542969 Z M 204.515625 133.523438 C 204.515625 133.519531 204.515625 133.511719 204.519531 133.507812 C 204.519531 133.511719 204.519531 133.515625 204.515625 133.523438 Z M 204.519531 133.507812 C 204.746094 131.4375 204.492188 129.5 203.785156 127.808594 C 204.488281 129.5 204.746094 131.4375 204.519531 133.507812 Z M 164.679688 123.183594 C 164.6875 123.179688 164.695312 123.179688 164.707031 123.171875 C 164.695312 123.179688 164.6875 123.179688 164.679688 123.183594 Z M 164.734375 123.164062 C 171.4375 121.039062 178.808594 119.726562 185.371094 119.726562 C 187.378906 119.726562 189.308594 119.847656 191.121094 120.109375 C 191.15625 120.113281 191.191406 120.117188 191.226562 120.121094 C 191.191406 120.117188 191.15625 120.113281 191.121094 120.109375 C 189.308594 119.847656 187.375 119.726562 185.371094 119.726562 C 178.804688 119.726562 171.4375 121.039062 164.734375 123.164062 Z M 164.734375 123.164062 " fill-opacity="1" fill-rule="nonzero"/></svg>