<svg id="visual" viewBox="0 0 900 300" width="900" height="300" xmlns="http://www.w3.org/2000/svg" xmlns:xlink="http://www.w3.org/1999/xlink" version="1.1"><rect x="0" y="0" width="900" height="300" fill="#001220"></rect><path d="M0 121L21.5 115C43 109 86 97 128.8 91.7C171.7 86.3 214.3 87.7 257.2 85.2C300 82.7 343 76.3 385.8 83.2C428.7 90 471.3 110 514.2 114.5C557 119 600 108 642.8 100.3C685.7 92.7 728.3 88.3 771.2 92.2C814 96 857 108 878.5 114L900 120L900 301L878.5 301C857 301 814 301 771.2 301C728.3 301 685.7 301 642.8 301C600 301 557 301 514.2 301C471.3 301 428.7 301 385.8 301C343 301 300 301 257.2 301C214.3 301 171.7 301 128.8 301C86 301 43 301 21.5 301L0 301Z" fill="#124262"></path><path d="M0 137L21.5 133.3C43 129.7 86 122.3 128.8 124.2C171.7 126 214.3 137 257.2 141.7C300 146.3 343 144.7 385.8 138C428.7 131.3 471.3 119.7 514.2 116.3C557 113 600 118 642.8 118.8C685.7 119.7 728.3 116.3 771.2 111.3C814 106.3 857 99.7 878.5 96.3L900 93L900 301L878.5 301C857 301 814 301 771.2 301C728.3 301 685.7 301 642.8 301C600 301 557 301 514.2 301C471.3 301 428.7 301 385.8 301C343 301 300 301 257.2 301C214.3 301 171.7 301 128.8 301C86 301 43 301 21.5 301L0 301Z" fill="#185775"></path><path d="M0 137L21.5 141.3C43 145.7 86 154.3 128.8 165.2C171.7 176 214.3 189 257.2 187.8C300 186.7 343 171.3 385.8 170.7C428.7 170 471.3 184 514.2 184.5C557 185 600 172 642.8 169.3C685.7 166.7 728.3 174.3 771.2 175.7C814 177 857 172 878.5 169.5L900 167L900 301L878.5 301C857 301 814 301 771.2 301C728.3 301 685.7 301 642.8 301C600 301 557 301 514.2 301C471.3 301 428.7 301 385.8 301C343 301 300 301 257.2 301C214.3 301 171.7 301 128.8 301C86 301 43 301 21.5 301L0 301Z" fill="#226d87"></path><path d="M0 229L21.5 226.3C43 223.7 86 218.3 128.8 213.3C171.7 208.3 214.3 203.7 257.2 199C300 194.3 343 189.7 385.8 191.3C428.7 193 471.3 201 514.2 200.7C557 200.3 600 191.7 642.8 189.2C685.7 186.7 728.3 190.3 771.2 191.5C814 192.7 857 191.3 878.5 190.7L900 190L900 301L878.5 301C857 301 814 301 771.2 301C728.3 301 685.7 301 642.8 301C600 301 557 301 514.2 301C471.3 301 428.7 301 385.8 301C343 301 300 301 257.2 301C214.3 301 171.7 301 128.8 301C86 301 43 301 21.5 301L0 301Z" fill="#318397"></path><path d="M0 267L21.5 265.3C43 263.7 86 260.3 128.8 253.3C171.7 246.3 214.3 235.7 257.2 235C300 234.3 343 243.7 385.8 246.7C428.7 249.7 471.3 246.3 514.2 244.3C557 242.3 600 241.7 642.8 246C685.7 250.3 728.3 259.7 771.2 261.3C814 263 857 257 878.5 254L900 251L900 301L878.5 301C857 301 814 301 771.2 301C728.3 301 685.7 301 642.8 301C600 301 557 301 514.2 301C471.3 301 428.7 301 385.8 301C343 301 300 301 257.2 301C214.3 301 171.7 301 128.8 301C86 301 43 301 21.5 301L0 301Z" fill="#449aa6"></path></svg>