<svg xmlns="http://www.w3.org/2000/svg" xmlns:xlink="http://www.w3.org/1999/xlink" width="500" zoomAndPan="magnify" viewBox="0 0 375 374.999991" height="500" preserveAspectRatio="xMidYMid meet" version="1.0"><defs><clipPath id="09df975350"><path d="M 23 4.433594 L 374 4.433594 L 374 368 L 23 368 Z M 23 4.433594 " clip-rule="nonzero"/></clipPath><clipPath id="89e0db2078"><path d="M 0 123 L 157 123 L 157 370.433594 L 0 370.433594 Z M 0 123 " clip-rule="nonzero"/></clipPath><clipPath id="0fefc944c2"><path d="M 46 293 L 98 293 L 98 370.433594 L 46 370.433594 Z M 46 293 " clip-rule="nonzero"/></clipPath><clipPath id="859a7c5091"><path d="M 12 68 L 375 68 L 375 370.433594 L 12 370.433594 Z M 12 68 " clip-rule="nonzero"/></clipPath></defs><g clip-path="url(#09df975350)"><path fill="#f58634" d="M 250.816406 122.257812 C 258.835938 141.414062 251.660156 168.898438 226.875 192.933594 C 204.746094 214.398438 175.21875 233.8125 162.992188 263.085938 C 145.898438 304.035156 165.234375 344.878906 206.300781 360.019531 C 256.851562 378.65625 333.34375 363.792969 365.925781 317.8125 C 385.570312 290.105469 366.441406 267.464844 331.707031 284.449219 C 302.851562 298.570312 279.324219 308.035156 263.214844 309.035156 C 236.535156 310.707031 226.601562 285.878906 257.785156 265.171875 C 262.285156 262.191406 266.683594 259.121094 270.976562 255.949219 C 317.875 221.3125 351.816406 175.863281 350.023438 127.257812 C 347.261719 52.484375 269.789062 -3.257812 196.363281 5.3125 C 128.910156 13.191406 58.800781 65.378906 23.546875 150.8125 C 45.347656 115.433594 141.035156 83.984375 202.074219 92.691406 C 225.394531 96.019531 243.640625 105.207031 250.796875 122.277344 Z M 250.816406 122.257812 " fill-opacity="1" fill-rule="evenodd"/></g><g clip-path="url(#89e0db2078)"><path fill="#f58634" d="M 97.191406 293.621094 C 98.691406 218.828125 125.582031 158.242188 156.972656 123.828125 L 156.714844 124.105469 C 51.796875 138.035156 -5.066406 191.105469 1.039062 295.019531 C 6.796875 393.328125 95.105469 398.226562 97.191406 293.621094 Z M 97.191406 293.621094 " fill-opacity="1" fill-rule="evenodd"/></g><g clip-path="url(#0fefc944c2)"><path fill="#9fa3aa" d="M 51.089844 370.433594 C 49.484375 370.433594 47.882812 370.3125 46.277344 370.070312 C 47.882812 370.3125 49.484375 370.433594 51.089844 370.433594 C 73.097656 370.433594 94.519531 347.292969 97.003906 299.242188 C 94.535156 347.277344 73.113281 370.433594 51.089844 370.433594 Z M 46.242188 370.050781 C 46.226562 370.050781 46.226562 370.050781 46.207031 370.050781 C 46.207031 370.050781 46.226562 370.050781 46.242188 370.050781 Z M 46.175781 370.035156 C 46.15625 370.035156 46.15625 370.035156 46.140625 370.035156 C 46.15625 370.035156 46.15625 370.035156 46.175781 370.035156 Z M 46.089844 370.019531 C 46.089844 370.019531 46.089844 370.019531 46.070312 370.019531 C 46.070312 370.019531 46.070312 370.019531 46.089844 370.019531 Z M 97.210938 293.933594 C 97.210938 293.828125 97.210938 293.726562 97.210938 293.621094 C 97.210938 293.535156 97.210938 293.449219 97.210938 293.363281 C 97.210938 293.449219 97.210938 293.535156 97.210938 293.621094 C 97.210938 293.726562 97.210938 293.828125 97.210938 293.933594 Z M 97.226562 293.191406 C 97.226562 293.171875 97.226562 293.15625 97.226562 293.140625 C 97.226562 293.15625 97.226562 293.171875 97.226562 293.191406 Z M 97.226562 293.191406 " fill-opacity="1" fill-rule="nonzero"/></g><g clip-path="url(#859a7c5091)"><path fill="#c16439" d="M 51.089844 370.433594 C 49.484375 370.433594 47.882812 370.3125 46.277344 370.070312 C 46.261719 370.070312 46.242188 370.070312 46.242188 370.050781 C 46.226562 370.050781 46.226562 370.050781 46.207031 370.050781 C 46.191406 370.050781 46.175781 370.050781 46.15625 370.035156 C 46.140625 370.035156 46.140625 370.035156 46.121094 370.035156 C 46.105469 370.035156 46.089844 370.019531 46.054688 370.019531 C 46.054688 370.019531 46.054688 370.019531 46.035156 370.019531 C 33.671875 368.035156 21.5625 358.777344 12.972656 342.550781 C 19.234375 344.449219 24.910156 345.378906 30.117188 345.378906 C 67.113281 345.378906 80.515625 298.363281 108.695312 215.277344 C 102.003906 238.777344 97.777344 264.949219 97.175781 293.140625 C 97.175781 293.15625 97.175781 293.171875 97.175781 293.191406 C 97.175781 293.242188 97.175781 293.292969 97.175781 293.34375 C 97.175781 293.433594 97.175781 293.519531 97.175781 293.605469 C 97.175781 293.707031 97.175781 293.8125 97.175781 293.914062 C 97.140625 295.726562 97.070312 297.484375 96.984375 299.226562 C 94.519531 347.257812 73.097656 370.414062 51.074219 370.414062 Z M 184.222656 347.914062 C 190.621094 352.863281 198.039062 356.964844 206.316406 360.019531 C 233 369.863281 266.90625 370.363281 297.761719 361.878906 C 297.488281 361.933594 297.210938 361.964844 296.953125 362.019531 C 326.480469 357.464844 395.796875 313.085938 367.925781 283.140625 C 335.363281 338.121094 237.277344 367.019531 184.207031 347.914062 Z M 296.953125 362 C 296.488281 362.070312 296.019531 362.140625 295.554688 362.191406 C 296.003906 362.140625 296.46875 362.070312 296.953125 362 Z M 295.554688 362.191406 C 295.105469 362.242188 294.660156 362.277344 294.226562 362.3125 C 294.660156 362.277344 295.105469 362.242188 295.554688 362.191406 Z M 249.347656 160.742188 C 251.574219 155.191406 252.988281 149.726562 253.59375 144.484375 C 253.59375 144.484375 253.59375 144.464844 253.59375 144.464844 C 253.59375 144.449219 253.59375 144.433594 253.59375 144.414062 C 253.59375 144.398438 253.59375 144.398438 253.59375 144.378906 C 253.59375 144.363281 253.59375 144.363281 253.59375 144.34375 C 253.59375 144.328125 253.59375 144.3125 253.59375 144.3125 C 253.59375 144.292969 253.59375 144.292969 253.59375 144.277344 C 253.59375 144.257812 253.59375 144.242188 253.59375 144.226562 C 253.59375 144.226562 253.59375 144.207031 253.59375 144.207031 C 253.59375 144.191406 253.59375 144.171875 253.609375 144.140625 C 253.609375 144.140625 253.609375 144.140625 253.609375 144.121094 C 254.472656 136.171875 253.507812 128.726562 250.78125 122.226562 C 243.675781 105.257812 225.582031 96.070312 202.472656 92.707031 C 202.332031 92.691406 202.195312 92.671875 202.058594 92.65625 C 195.070312 91.65625 187.65625 91.191406 179.945312 91.191406 C 154.695312 91.191406 126.359375 96.226562 100.574219 104.398438 C 100.539062 104.414062 100.503906 104.414062 100.46875 104.433594 C 100.433594 104.449219 100.398438 104.449219 100.367188 104.464844 C 70.164062 114.050781 43.484375 127.949219 29.460938 143.105469 C 69.769531 94.257812 141.828125 68.8125 196.347656 68.8125 C 255.265625 68.8125 293.691406 98.585938 249.316406 160.757812 Z M 238.726562 316.105469 C 205.421875 316.105469 218.441406 277.757812 255.386719 266.84375 C 241.347656 276.964844 236.808594 287.863281 238.964844 296.050781 C 238.964844 296.050781 238.964844 296.050781 238.964844 296.070312 C 238.964844 296.085938 238.964844 296.085938 238.984375 296.105469 C 238.984375 296.105469 238.984375 296.121094 238.984375 296.121094 C 238.984375 296.140625 239 296.140625 239 296.15625 C 239 296.15625 239 296.171875 239 296.171875 C 239 296.171875 239 296.191406 239 296.191406 C 239 296.207031 239 296.207031 239 296.226562 C 239 296.242188 239 296.242188 239 296.242188 C 239 296.257812 239.019531 296.257812 239.019531 296.277344 C 239.019531 296.277344 239.019531 296.292969 239.019531 296.292969 C 239.019531 296.3125 239.019531 296.3125 239.019531 296.328125 C 239.019531 296.328125 239.019531 296.328125 239.019531 296.34375 C 239.019531 296.363281 239.035156 296.378906 239.035156 296.378906 C 240 299.726562 242.089844 302.605469 245.125 304.777344 C 245.125 304.777344 245.125 304.777344 245.140625 304.777344 C 245.15625 304.792969 245.15625 304.792969 245.175781 304.792969 C 245.175781 304.792969 245.191406 304.792969 245.191406 304.8125 C 245.191406 304.8125 245.210938 304.828125 245.210938 304.828125 C 245.226562 304.828125 245.226562 304.84375 245.226562 304.84375 C 245.226562 304.84375 245.226562 304.863281 245.246094 304.863281 C 245.261719 304.863281 245.261719 304.878906 245.277344 304.878906 C 245.277344 304.878906 245.277344 304.878906 245.296875 304.878906 C 245.3125 304.898438 245.332031 304.898438 245.332031 304.914062 C 249.140625 307.570312 254.402344 309.136719 260.714844 309.136719 C 261.542969 309.136719 262.386719 309.105469 263.25 309.050781 C 266.511719 308.84375 270.082031 308.292969 273.945312 307.433594 C 258.886719 313.605469 247.28125 316.121094 238.726562 316.121094 Z M 238.726562 316.105469 " fill-opacity="1" fill-rule="nonzero"/></g><path fill="#9fa3aa" d="M 260.714844 309.121094 C 254.402344 309.121094 249.140625 307.570312 245.332031 304.898438 C 249.140625 307.550781 254.386719 309.105469 260.714844 309.105469 C 261.542969 309.105469 262.386719 309.070312 263.25 309.019531 C 266.511719 308.8125 270.097656 308.257812 273.960938 307.398438 C 270.097656 308.257812 266.527344 308.8125 263.269531 309.019531 C 262.40625 309.070312 261.5625 309.105469 260.734375 309.105469 Z M 245.332031 304.898438 C 245.3125 304.898438 245.3125 304.878906 245.296875 304.863281 C 245.3125 304.878906 245.332031 304.878906 245.332031 304.898438 Z M 245.277344 304.863281 C 245.277344 304.84375 245.261719 304.84375 245.246094 304.84375 C 245.261719 304.84375 245.261719 304.863281 245.277344 304.863281 Z M 245.226562 304.828125 C 245.210938 304.828125 245.210938 304.8125 245.210938 304.8125 C 245.226562 304.8125 245.226562 304.828125 245.226562 304.828125 Z M 245.175781 304.792969 C 245.175781 304.792969 245.160156 304.792969 245.160156 304.777344 C 245.160156 304.777344 245.175781 304.777344 245.175781 304.792969 Z M 245.125 304.757812 C 245.125 304.757812 245.105469 304.757812 245.105469 304.757812 C 245.105469 304.757812 245.105469 304.757812 245.125 304.757812 Z M 239.035156 296.363281 Z M 239.019531 296.3125 C 239.019531 296.3125 239.019531 296.3125 239.019531 296.292969 C 239.019531 296.292969 239.019531 296.292969 239.019531 296.3125 Z M 239 296.257812 C 239 296.257812 239 296.242188 239 296.242188 C 239 296.242188 239 296.257812 239 296.257812 Z M 238.984375 296.207031 C 238.984375 296.207031 238.984375 296.191406 238.984375 296.191406 C 238.984375 296.207031 238.984375 296.207031 238.984375 296.207031 Z M 238.964844 296.15625 C 238.964844 296.140625 238.964844 296.140625 238.964844 296.140625 C 238.964844 296.140625 238.964844 296.15625 238.964844 296.15625 Z M 238.949219 296.121094 C 238.949219 296.105469 238.949219 296.105469 238.933594 296.085938 C 238.933594 296.105469 238.949219 296.105469 238.949219 296.121094 Z M 238.933594 296.085938 C 238.933594 296.070312 238.914062 296.050781 238.914062 296.050781 C 238.914062 296.070312 238.914062 296.070312 238.933594 296.085938 Z M 238.914062 296.035156 C 236.742188 287.84375 241.292969 276.949219 255.335938 266.828125 C 241.3125 276.949219 236.757812 287.84375 238.914062 296.035156 Z M 238.914062 296.035156 " fill-opacity="1" fill-rule="nonzero"/><path fill="#9fa3aa" d="M 253.59375 144.484375 C 253.59375 144.484375 253.59375 144.484375 253.59375 144.464844 C 253.59375 144.464844 253.59375 144.484375 253.59375 144.484375 Z M 253.59375 144.433594 C 253.59375 144.414062 253.59375 144.414062 253.59375 144.398438 C 253.59375 144.414062 253.59375 144.414062 253.59375 144.433594 Z M 253.609375 144.363281 C 253.609375 144.34375 253.609375 144.328125 253.609375 144.328125 C 253.609375 144.34375 253.609375 144.363281 253.609375 144.363281 Z M 253.625 144.292969 C 253.625 144.277344 253.625 144.257812 253.625 144.242188 C 253.625 144.257812 253.625 144.277344 253.625 144.292969 Z M 253.625 144.226562 C 253.625 144.207031 253.625 144.171875 253.644531 144.15625 C 253.644531 144.171875 253.644531 144.191406 253.625 144.226562 Z M 253.644531 144.15625 C 254.507812 136.207031 253.539062 128.757812 250.816406 122.257812 C 253.523438 128.757812 254.507812 136.207031 253.644531 144.15625 Z M 100.417969 104.484375 C 100.453125 104.464844 100.488281 104.464844 100.519531 104.449219 C 100.488281 104.464844 100.453125 104.464844 100.417969 104.484375 Z M 100.625 104.414062 C 126.410156 96.242188 154.765625 91.207031 179.996094 91.207031 C 187.722656 91.207031 195.140625 91.671875 202.109375 92.671875 C 202.246094 92.691406 202.382812 92.707031 202.523438 92.726562 C 202.382812 92.707031 202.246094 92.691406 202.109375 92.671875 C 195.140625 91.671875 187.707031 91.207031 179.996094 91.207031 C 154.746094 91.207031 126.410156 96.242188 100.625 104.414062 Z M 100.625 104.414062 " fill-opacity="1" fill-rule="nonzero"/></svg>